<svg xmlns="http://www.w3.org/2000/svg" viewBox="0 0 800 800"><path d="M400,55C209.77,55,55,209.77,55,400S209.77,745,400,745,745,590.23,745,400,590.23,55,400,55Z" style="fill:#141946"/><circle cx="400" cy="400" r="320.14" style="fill:#fff"/><path d="M563.44,551.69l54,39.28c95.76-108.88,95.76-273.06,0-381.94l-54,39.28q-5.66-6.09-11.75-11.75l39.28-54c-108.88-95.76-273.06-95.76-381.94,0l39.28,54q-6.09,5.66-11.75,11.75l-54-39.28c-95.76,108.88-95.76,273.06,0,381.94l54-39.28q5.66,6.09,11.75,11.75l-39.28,54c108.88,95.76,273.06,95.76,381.94,0l-39.28-54Q557.78,557.78,563.44,551.69ZM400,604.16c-112.57,0-204.16-91.59-204.16-204.16S287.43,195.84,400,195.84,604.16,287.43,604.16,400,512.57,604.16,400,604.16Z" style="fill:#7ccdef"/><polygon points="412.45 377.56 400 325.95 387.52 377.56 338.38 362.99 375.09 399.99 338.38 436.99 387.52 422.46 400 474.05 412.45 422.46 461.63 436.99 424.89 399.99 461.63 362.99 412.45 377.56" style="fill:#FF0000"/><polygon points="539.77 362.8 539.77 312.79 487.21 260.23 312.79 260.23 260.23 312.79 260.23 374.35 234.58 400 260.23 425.65 260.23 487.21 312.79 539.77 487.21 539.77 539.77 487.21 539.77 437.2 486.73 437.2 486.73 471.18 471.18 486.73 328.82 486.73 313.27 471.18 313.27 328.82 328.82 313.27 471.18 313.27 486.73 328.82 486.73 362.8 539.77 362.8" style="fill:#FF0000"/></svg>