<svg width="480" height="480" viewBox="0 0 480 480" fill="none" xmlns="http://www.w3.org/2000/svg">
<g clip-path="url(#clip0_5_420)">
<path d="M240 480C372.548 480 480 372.548 480 240C480 107.452 372.548 0 240 0C107.452 0 0 107.452 0 240C0 372.548 107.452 480 240 480Z" fill="#003DA6"/>
<path d="M240 363.556C308.238 363.556 363.556 308.238 363.556 240C363.556 171.762 308.238 116.444 240 116.444C171.762 116.444 116.444 171.762 116.444 240C116.444 308.238 171.762 363.556 240 363.556Z" fill="black"/>
<path d="M465.556 240C465.556 115.444 364.578 14.4445 240 14.4445C115.422 14.4445 14.4445 115.444 14.4445 240C14.4445 262.111 17.6445 283.467 23.5778 303.644L16.6889 306.022C45.1556 402.444 134.356 472.8 240 472.8C345.644 472.8 434.844 402.444 463.311 306.022L456.422 303.644C462.356 283.444 465.556 262.089 465.556 239.978V240ZM24.6667 240C24.6667 121.067 121.067 24.6667 240 24.6667C358.933 24.6667 455.333 121.067 455.333 240C455.333 260.933 452.333 281.178 446.756 300.333L239.978 229.022L33.2445 300.311C27.6667 281.178 24.6667 260.933 24.6667 240V240Z" fill="black"/>
<path d="M240 0C107.444 0 0 107.444 0 240C0 372.556 107.444 480 240 480C372.556 480 480 372.556 480 240C480 107.444 372.556 0 240 0ZM240 465.556C115.422 465.556 14.4444 364.578 14.4444 240C14.4444 115.422 115.422 14.4444 240 14.4444C364.578 14.4444 465.556 115.422 465.556 240C465.556 364.578 364.578 465.556 240 465.556Z" fill="#C1C5C8"/>
<path d="M118.622 284.133L98.8667 290.956V402.667C123.622 424.156 153.333 440.089 186.044 448.533V357.333C154.889 342.978 130.422 316.6 118.622 284.133V284.133Z" fill="#003DA6"/>
<path d="M381.089 290.933L361.356 284.133C349.556 316.6 325.089 342.978 293.933 357.333V448.511C326.644 440.067 356.356 424.133 381.111 402.644V290.933H381.089Z" fill="#003DA6"/>
<path d="M240 369.111C220.733 369.111 202.467 364.889 186.044 357.333V448.533C203.289 452.978 221.378 455.355 240 455.355C258.622 455.355 276.711 452.978 293.956 448.533V357.355C277.533 364.911 259.267 369.133 240 369.133V369.111Z" fill="black"/>
<path d="M37.0889 312.244C49.6444 347.533 71.1555 378.578 98.8889 402.644V290.933L37.0889 312.244Z" fill="black"/>
<path d="M442.911 312.267L381.089 290.956V402.667C408.822 378.6 430.333 347.556 442.911 312.267Z" fill="black"/>
<path d="M191.511 402.244C192.356 402.155 193.533 401.978 194.289 402.2L197.067 403C197.956 403.267 198.133 403.533 197.933 404.267L191.378 426.933C191.156 427.667 190.844 427.8 189.978 427.555L185.378 426.222C184.489 425.978 184.311 425.689 184.511 424.956L189.267 408.489L184.044 407C183.156 406.733 182.978 406.467 183.178 405.733L183.667 404.022C183.778 403.6 183.911 403.333 184.556 403.178C184.556 403.178 190.667 402.333 191.511 402.244V402.244Z" fill="white"/>
<path d="M211.4 415.2C211.889 410.222 216.467 406.489 222.578 407.111C231.6 408.022 233.356 413.956 232.644 421.067C231.911 428.378 228.133 434.311 219.378 433.422C215.822 433.067 213.111 431.578 210.778 429.044C210.222 428.444 210.422 428.2 211.044 427.667L213.6 425.6C214.222 425.111 214.556 425 215.133 425.644C216.511 427.178 217.956 428.089 220.444 428.333C223.333 428.622 225.644 426.289 226.044 422.333C225.156 423.244 223.533 424.422 219.267 424C214.511 423.533 210.911 420.444 211.422 415.178L211.4 415.2ZM217.867 415.444C217.667 417.556 219.378 419.378 221.689 419.6C224.289 419.867 226.044 418.378 226.267 416.267C226.489 414.044 225.044 412.333 222.444 412.067C219.933 411.822 218.089 413.2 217.867 415.422V415.444Z" fill="white"/>
<path d="M246 417.4C245.533 412.422 249.311 407.889 255.422 407.311C264.467 406.467 267.311 411.956 267.978 419.089C268.667 426.4 266.089 432.956 257.333 433.778C253.778 434.111 250.822 433.178 248.044 431.133C247.4 430.644 247.533 430.378 248.044 429.733L250.156 427.222C250.667 426.622 250.978 426.444 251.667 426.978C253.311 428.222 254.911 428.844 257.378 428.6C260.267 428.333 262.089 425.6 261.733 421.622C261.022 422.689 259.667 424.156 255.4 424.556C250.644 425 246.511 422.667 246.022 417.4H246ZM252.4 416.4C252.6 418.511 254.622 419.978 256.956 419.756C259.556 419.511 261 417.733 260.8 415.622C260.6 413.4 258.844 412 256.244 412.244C253.733 412.489 252.2 414.2 252.4 416.422V416.4Z" fill="white"/>
<path d="M285.711 417.822C284.889 418.044 284.6 417.911 284.4 417.156L283.644 414.489C283.444 413.756 283.6 413.467 284.422 413.244L287.644 412.356C290.356 411.6 291.089 410.067 290.733 408.756C290.222 406.933 288.844 406.178 286.133 406.933C283.733 407.6 283.022 408.667 281.956 410.533C281.556 411.222 281.156 411.222 280.467 410.844L277.733 409.289C277.044 408.867 276.8 408.667 277.244 407.978C279.111 405.067 280.978 403.022 284.733 401.978C289.133 400.733 295.356 401.311 296.8 406.489C297.489 408.978 296.444 411.222 295 412.711V412.756C297.2 413.133 299.578 413.911 300.444 417C301.889 422.178 297.756 425.867 291.867 427.511C288.111 428.556 284.933 427.933 281.844 426.422C281.111 426.067 281.2 425.778 281.578 425.044L283.111 422.333C283.511 421.644 283.867 421.467 284.556 421.822C286.533 422.756 288.089 423.222 290.467 422.556C293.956 421.578 294.556 420.044 294.044 418.222C293.689 416.911 292.133 416.022 289.422 416.778L285.667 417.822H285.711Z" fill="white"/>
<path d="M77.5333 194.689C77.0444 193.867 77.2666 193.467 78.0444 192.956L81.5111 190.711C82.3111 190.2 82.6444 190.089 83.1333 190.911C85.1333 194.422 85.8222 199.444 84.8666 203.911C82.9111 213 74.4222 219.044 66.0889 217.244C57.7555 215.444 52.4889 206.467 54.4222 197.378C55.3778 192.911 58.0666 188.6 61.3333 186.222C62.1111 185.667 62.3555 185.911 62.8889 186.711L65.1333 190.178C65.6222 190.956 65.6666 191.4 64.8889 191.956C62.4889 193.556 60.9555 195.8 60.3333 198.644C59.1111 204.356 63.0666 208.644 67.7111 209.644C72.2889 210.622 77.7111 208.378 78.9555 202.644C79.5778 199.778 79.0889 197.133 77.5555 194.667L77.5333 194.689Z" fill="white"/>
<path d="M95.8444 168.111C96.6444 168.533 96.7333 168.911 96.2667 169.778L93.8667 174.333C93.4 175.2 93.0444 175.333 92.2444 174.933L67.7111 162.067C66.9111 161.644 66.8222 161.267 67.2889 160.4L77.2444 141.422C77.7111 140.556 78.0667 140.422 78.8667 140.822L82.0667 142.489C82.8667 142.911 82.9555 143.289 82.4889 144.156L75.5111 157.444L80.8667 160.244L87.6222 147.378C88.0889 146.511 88.4444 146.378 89.2444 146.8L92.4444 148.467C93.2444 148.889 93.3333 149.244 92.8667 150.133L86.1111 163L95.8444 168.111V168.111Z" fill="white"/>
<path d="M147.933 108.444C147.933 109.333 147.933 109.889 147.578 110.133L147.089 110.489C146.733 110.733 146.222 110.578 145.378 110.289L129.889 105.467L135.733 116.533C136.178 117.378 136.178 117.644 135.378 118.222L131.2 121.222C130.4 121.8 129.867 121.8 129.489 121.022L115.844 95.0666C115.711 94.7999 115.689 94.6888 115.955 94.511L116.267 94.2888C116.422 94.1777 116.578 94.1555 116.955 94.2888L141.289 101.889L141.867 76.3999C141.867 76.0221 141.955 75.8666 142.111 75.7555L142.422 75.5332C142.689 75.3332 142.778 75.3777 143 75.5999L163.2 96.8444C163.778 97.4888 163.644 97.9555 162.844 98.5332L158.667 101.533C157.867 102.111 157.578 102.044 156.955 101.333L148.444 91.9777L147.978 108.467L147.933 108.444Z" fill="white"/>
<path d="M185.311 57.3999C194.222 54.7332 203.6 59.2666 206.044 67.4444C208.489 75.6221 203.156 84.5777 194.244 87.2444C185.333 89.911 175.956 85.3777 173.511 77.1999C171.067 69.0221 176.4 60.0666 185.311 57.3999V57.3999ZM192.511 81.4444C198.289 79.711 199.933 74.1555 198.6 69.6888C197.244 65.1333 192.844 61.4666 187.044 63.1999C181.444 64.8666 179.6 70.3999 180.956 74.9555C182.289 79.4444 186.889 83.111 192.511 81.4444Z" fill="white"/>
<path d="M303.4 60.3333C304.355 60.6 304.555 60.9111 304.311 61.8L303.267 65.5555C303.022 66.4222 302.689 66.6 301.733 66.3333L292.778 63.8444L286.733 85.6666C286.489 86.5333 286.155 86.7111 285.2 86.4444L280.244 85.0666C279.289 84.8 279.089 84.4889 279.333 83.6222L285.378 61.8L276.422 59.3111C275.467 59.0444 275.267 58.7333 275.511 57.8444L276.555 54.0888C276.8 53.2222 277.133 53.0444 278.089 53.3111L303.4 60.3111V60.3333ZM232.955 79.0888C232.955 80 232.667 80.2444 231.689 80.2444H226.555C225.555 80.2444 225.289 79.9777 225.289 79.0888V50.0444C225.289 49.7555 225.378 49.6666 225.711 49.6666H226.178C226.511 49.6666 226.733 49.8 227.067 50.0444L247.067 66.4666V51.3777C247.067 50.4666 247.355 50.2222 248.333 50.2222H253.467C254.467 50.2222 254.733 50.4888 254.733 51.3777V80.4222C254.733 80.7111 254.644 80.8 254.311 80.8H253.844C253.511 80.8 253.289 80.6666 252.955 80.4222L232.955 63.7777V79.0888Z" fill="white"/>
<path d="M333.644 94.8444L334.756 108.511C334.822 109.8 333.911 109.755 333.044 109.244L328.956 106.8C328.111 106.289 327.8 105.711 327.689 104.689L326.622 91.3999L324.356 90.0444L318.778 99.3555C318.311 100.133 317.933 100.2 317.089 99.6888L312.667 97.0444C311.822 96.5333 311.711 96.1777 312.178 95.3999L326.4 71.6221C326.867 70.8444 327.244 70.7777 328.089 71.2888L338.178 77.311C342.8 80.0666 347.444 85.2444 343.867 91.2221C341.4 95.3555 337.422 95.8666 333.622 94.8444H333.644ZM331.711 87.6888C334.556 89.3777 336.356 89.311 337.489 87.3999C338.644 85.4888 337.844 83.8666 335 82.1777L330.622 79.5555L327.311 85.0666L331.689 87.6888H331.711Z" fill="white"/>
<path d="M348.333 121.889C347.644 121.178 347.644 120.8 348.289 120.178L368.311 101.022C368.956 100.4 369.333 100.422 370.022 101.133L384.822 116.6C385.511 117.311 385.511 117.689 384.867 118.311L382.267 120.8C381.622 121.422 381.244 121.4 380.556 120.689L370.178 109.844L365.8 114.022L375.755 124.422C376.444 125.133 376.444 125.511 375.8 126.133L373.2 128.622C372.556 129.244 372.178 129.222 371.489 128.511L361.533 118.111L357.044 122.4L367.422 133.244C368.111 133.956 368.111 134.333 367.467 134.956L364.867 137.444C364.222 138.067 363.844 138.044 363.155 137.333L348.355 121.867L348.333 121.889ZM383.8 105.978C383.089 105.867 382.467 105.556 381.933 105.022L379.2 102.156C378.622 101.533 378.756 101.133 380.156 101.178L388.511 101.356C389.422 101.333 389.667 101.956 389.467 102.911L388.822 105.956C388.622 106.733 388.4 106.933 387.355 106.778L383.822 106L383.8 105.978Z" fill="white"/>
<path d="M390.822 180.867C390.489 181.422 389.756 181.311 389.422 180.689L386.622 175.333C386.222 174.578 386.333 174.222 386.889 173.333L389.644 169.067L383.489 157.311L378.422 157.133C377.378 157.089 377.022 156.956 376.622 156.2L373.822 150.844C373.489 150.222 373.844 149.6 374.467 149.6L407.178 151.133C408.044 151.222 408.489 151.133 408.689 151.511L408.756 151.644C408.956 152.022 408.644 152.333 408.2 153.111L390.8 180.844L390.822 180.867ZM399.356 156.222L389.289 156.067L393.8 164.689L399.4 156.333L399.356 156.244V156.222Z" fill="white"/>
<path d="M404.311 215.911C404.511 216.889 404.311 217.2 403.444 217.4L399.911 218.133C399.022 218.311 398.711 218.089 398.511 217.133L394.489 198.111C394.289 197.133 394.489 196.822 395.356 196.622L422.467 190.911C423.356 190.733 423.667 190.955 423.867 191.911L424.933 196.933C425.133 197.911 424.933 198.222 424.067 198.422L401.6 203.155L404.289 215.889L404.311 215.911Z" fill="white"/>
<path d="M293.956 326.6C299.2 319.622 304.111 312.067 308.6 304C328.511 268.178 339.244 225.111 339.667 179.467C339.711 173.511 339.533 166.533 339.156 159.733C330.178 156.956 314.022 152.444 293.933 149.067L293.956 326.644V326.6ZM293.956 346.822C291.956 349.044 289.933 351.2 287.867 353.267L287.822 353.311C283.711 357.444 279.489 361.289 275.111 364.867C275.044 364.911 274.978 364.978 274.911 365.022C271.644 367.667 268.311 370.156 264.933 372.467C264.911 372.467 264.889 372.511 264.844 372.511C263.778 373.244 262.711 373.933 261.644 374.622C261.511 374.711 261.4 374.778 261.267 374.867C260.2 375.533 259.156 376.2 258.089 376.844C258.044 376.867 257.978 376.911 257.933 376.956C255.644 378.333 253.311 379.622 250.978 380.822C250.889 380.867 250.778 380.911 250.689 380.978C249.667 381.511 248.622 382.022 247.578 382.511C247.378 382.6 247.2 382.689 247 382.778C245.978 383.267 244.956 383.733 243.933 384.178C243.8 384.244 243.689 384.289 243.556 384.356C242.378 384.867 241.2 385.356 240.022 385.844C239.6 385.667 239.178 385.489 238.756 385.311C238.133 385.044 237.489 384.8 236.867 384.533C236.311 384.289 235.733 384.044 235.178 383.778C234.644 383.533 234.133 383.311 233.6 383.044C233.022 382.778 232.444 382.489 231.867 382.222C231.356 381.978 230.867 381.733 230.356 381.467C229.778 381.178 229.178 380.889 228.6 380.578C228.111 380.333 227.644 380.067 227.178 379.8C226.089 379.2 224.978 378.6 223.889 377.978C223.444 377.733 223.022 377.489 222.578 377.222C221.956 376.867 221.356 376.489 220.756 376.111C220.333 375.844 219.889 375.578 219.467 375.311C218.844 374.933 218.244 374.533 217.644 374.133C217.222 373.867 216.822 373.6 216.4 373.311C215.778 372.889 215.156 372.489 214.533 372.067C214.222 371.844 213.889 371.622 213.578 371.4C212.267 370.489 210.978 369.555 209.711 368.6C209.444 368.4 209.178 368.2 208.889 368C208.244 367.511 207.622 367.022 206.978 366.511C206.622 366.244 206.267 365.955 205.933 365.689C205.311 365.178 204.689 364.667 204.067 364.155C203.733 363.889 203.4 363.6 203.067 363.311C202.422 362.778 201.778 362.222 201.133 361.667C200.933 361.511 200.756 361.333 200.556 361.156C199.111 359.889 197.667 358.578 196.244 357.244C196.111 357.133 195.978 357 195.867 356.889C195.222 356.267 194.556 355.644 193.911 355C193.644 354.733 193.356 354.467 193.089 354.2C192.467 353.578 191.822 352.933 191.2 352.311C190.933 352.044 190.689 351.778 190.422 351.511C189.778 350.844 189.133 350.155 188.489 349.467C188.4 349.378 188.333 349.289 188.244 349.2C187.511 348.4 186.778 347.622 186.044 346.8C184.978 345.6 183.911 344.378 182.867 343.155C182.622 342.867 182.378 342.578 182.133 342.267C180.044 339.778 178 337.222 176 334.578C175.756 334.267 175.533 333.956 175.289 333.622C173.311 330.978 171.378 328.244 169.511 325.444C169.289 325.111 169.044 324.756 168.822 324.422C167.889 323.022 166.978 321.6 166.067 320.156C165.156 318.711 164.267 317.244 163.4 315.778C163.178 315.422 162.956 315.044 162.756 314.667C161.889 313.178 161.022 311.689 160.178 310.178C139.222 272.489 127.933 227.289 127.489 179.511C127.444 174.333 127.578 168.622 127.822 163C128.022 158.6 128.289 154.222 128.622 150.156C128.622 150.156 128.667 150.156 128.756 150.111C128.8 150.111 128.844 150.067 128.911 150.044C128.956 150.044 129.022 150 129.089 149.978C129.156 149.956 129.244 149.933 129.333 149.889C129.4 149.867 129.489 149.844 129.578 149.8C129.644 149.778 129.711 149.756 129.778 149.733C129.889 149.689 130 149.644 130.133 149.622C130.2 149.622 130.244 149.578 130.311 149.556C130.511 149.489 130.711 149.422 130.933 149.333C131 149.333 131.044 149.289 131.111 149.267C131.289 149.2 131.489 149.133 131.711 149.067C131.778 149.044 131.867 149.022 131.933 149C132.489 148.822 133.111 148.6 133.8 148.378C133.867 148.356 133.956 148.333 134.022 148.311C134.333 148.222 134.644 148.111 134.978 148C135.044 148 135.089 147.956 135.156 147.933C135.556 147.8 135.978 147.667 136.4 147.533C136.4 147.533 136.4 147.533 136.422 147.533C136.844 147.4 137.267 147.267 137.711 147.133C137.778 147.111 137.867 147.089 137.956 147.067C138.4 146.933 138.844 146.8 139.311 146.644C139.333 146.644 139.356 146.644 139.378 146.644C139.889 146.489 140.422 146.333 140.956 146.178C141 146.178 141.044 146.156 141.089 146.133C141.578 145.978 142.089 145.844 142.622 145.689C142.689 145.689 142.778 145.644 142.844 145.622C143.978 145.289 145.2 144.956 146.467 144.6C146.533 144.6 146.622 144.556 146.689 144.533C147.267 144.378 147.845 144.222 148.445 144.044C148.511 144.044 148.578 144 148.667 143.978C150 143.622 151.378 143.244 152.822 142.889C152.911 142.867 153 142.844 153.111 142.822C153.8 142.644 154.489 142.467 155.2 142.289C155.244 142.289 155.267 142.289 155.311 142.267C156.089 142.067 156.867 141.889 157.667 141.689C157.667 141.689 157.689 141.689 157.711 141.689C158.467 141.511 159.222 141.333 160 141.133C160.111 141.111 160.2 141.089 160.311 141.067C161.933 140.689 163.6 140.311 165.311 139.933C165.4 139.933 165.489 139.889 165.578 139.867C166.356 139.689 167.156 139.533 167.933 139.356C168.044 139.333 168.133 139.311 168.244 139.289C170 138.911 171.778 138.556 173.622 138.178C173.756 138.156 173.911 138.133 174.044 138.089C174.889 137.933 175.733 137.756 176.6 137.6C176.667 137.6 176.756 137.578 176.822 137.556C177.778 137.378 178.756 137.2 179.733 137.022C179.778 137.022 179.8 137.022 179.844 137.022C180.756 136.867 181.667 136.711 182.578 136.533C182.733 136.511 182.911 136.467 183.067 136.444C184.022 136.289 185 136.111 185.956 135.956C185.956 135.956 186.067 135.956 186.111 135.933C187.889 135.644 189.689 135.378 191.533 135.111C191.756 135.067 192 135.044 192.222 135.022C194.022 134.756 195.844 134.511 197.689 134.267C197.822 134.267 197.956 134.222 198.089 134.222C200 133.978 201.956 133.756 203.911 133.533C204.133 133.511 204.356 133.489 204.578 133.467C206.511 133.267 208.489 133.067 210.467 132.889C210.556 132.889 210.667 132.889 210.756 132.867C212.8 132.689 214.844 132.533 216.933 132.378C217.133 132.378 217.356 132.356 217.578 132.333C219.644 132.2 221.733 132.067 223.844 131.978C223.889 131.978 223.956 131.978 224 131.978C226.133 131.867 228.311 131.8 230.467 131.756C230.667 131.756 230.844 131.756 231.044 131.756C233.244 131.711 235.444 131.667 237.667 131.667C238.267 131.667 239.933 131.667 239.933 131.667C239.933 131.667 241.578 131.667 242.2 131.667C244.444 131.667 246.667 131.689 248.867 131.756C249.022 131.756 249.178 131.756 249.333 131.756C253.778 131.867 258.133 132.067 262.444 132.356C262.556 132.356 262.667 132.356 262.778 132.356C267.133 132.644 271.4 133.044 275.556 133.489C275.6 133.489 275.622 133.489 275.667 133.489C282 134.178 288.089 135.022 293.889 135.956C294.867 136.111 295.845 136.289 296.822 136.444C296.978 136.467 297.133 136.489 297.289 136.533C298.222 136.689 299.133 136.844 300.044 137.022C300.089 137.022 300.111 137.022 300.156 137.022C301.133 137.2 302.133 137.378 303.089 137.556C303.156 137.556 303.222 137.578 303.289 137.6C304.156 137.756 305.022 137.933 305.867 138.089C306 138.111 306.133 138.133 306.289 138.178C308.133 138.533 309.933 138.911 311.667 139.289C311.778 139.289 311.867 139.333 311.978 139.356C312.778 139.533 313.556 139.689 314.333 139.867C314.422 139.867 314.511 139.911 314.622 139.933C316.333 140.311 318 140.689 319.6 141.067C319.711 141.089 319.8 141.111 319.911 141.133C320.689 141.311 321.444 141.489 322.178 141.689C322.178 141.689 322.222 141.689 322.244 141.689C323.044 141.889 323.844 142.089 324.622 142.267C324.644 142.267 324.667 142.267 324.689 142.267C325.4 142.444 326.111 142.622 326.8 142.8C326.889 142.822 327 142.844 327.089 142.867C328.533 143.244 329.933 143.6 331.267 143.978C331.333 143.978 331.4 144.022 331.467 144.022C332.067 144.178 332.667 144.356 333.244 144.511C333.333 144.511 333.4 144.556 333.489 144.578C334.756 144.933 335.956 145.267 337.089 145.6C337.178 145.622 337.244 145.644 337.333 145.667C337.867 145.822 338.378 145.978 338.867 146.111C338.889 146.111 338.933 146.111 338.956 146.133C339.511 146.289 340.044 146.444 340.556 146.6C340.556 146.6 340.6 146.6 340.622 146.6C341.089 146.733 341.556 146.889 342 147.022C342.067 147.044 342.156 147.067 342.222 147.089C342.667 147.222 343.111 147.356 343.533 147.489C343.978 147.622 344.378 147.756 344.778 147.889C344.844 147.889 344.911 147.933 344.978 147.956C345.289 148.067 345.6 148.156 345.889 148.244C345.978 148.267 346.067 148.289 346.133 148.333C346.822 148.556 347.444 148.756 348 148.956C348.067 148.978 348.156 149 348.222 149.022C348.422 149.089 348.622 149.156 348.8 149.222C348.867 149.222 348.933 149.267 349 149.289C349.222 149.356 349.422 149.444 349.622 149.511C349.689 149.533 349.756 149.556 349.8 149.578C349.933 149.622 350.044 149.667 350.156 149.711C350.222 149.733 350.289 149.756 350.356 149.778C350.444 149.8 350.511 149.844 350.578 149.867C350.689 149.911 350.8 149.956 350.889 149.978C350.933 149.978 350.978 150 351 150.022C351.2 150.089 351.311 150.133 351.311 150.133C351.778 155.889 352.133 162.311 352.333 168.578C352.444 172.333 352.489 176.022 352.444 179.489C352.044 223.289 342.511 264.911 324.8 300.578C323.178 303.822 321.511 307.022 319.778 310.156C318.933 311.667 318.089 313.156 317.222 314.622C317 315 316.778 315.356 316.578 315.733C315.711 317.2 314.822 318.667 313.911 320.111C313 321.556 312.089 322.956 311.156 324.356C310.933 324.711 310.689 325.044 310.467 325.4C308.6 328.2 306.667 330.911 304.689 333.556C304.444 333.889 304.2 334.2 303.956 334.533C301.978 337.155 299.933 339.711 297.844 342.2C297.6 342.511 297.333 342.8 297.089 343.111C296.044 344.333 295 345.555 293.911 346.755L293.956 346.822ZM186.067 326.6V149.044C186.067 149.044 186.044 149.044 186.022 149.044C165.978 152.422 149.822 156.911 140.844 159.711C140.467 166.511 140.289 173.489 140.333 179.444C140.756 225.089 151.489 268.155 171.4 303.978C175.889 312.044 180.8 319.6 186.044 326.6H186.067Z" fill="black"/>
<path d="M140.844 159.711C140.467 166.511 140.289 173.489 140.333 179.444C140.756 225.089 151.489 268.156 171.4 303.978C175.889 312.044 180.8 319.6 186.044 326.6V149.044C165.978 152.422 149.822 156.911 140.844 159.711V159.711Z" fill="#003DA6"/>
<path d="M308.6 304C328.511 268.178 339.244 225.111 339.667 179.467C339.711 173.511 339.533 166.533 339.156 159.733C330.178 156.956 314.022 152.444 293.933 149.067V326.622C299.2 319.644 304.111 312.089 308.6 304.022V304Z" fill="#003DA6"/>
<path d="M336.822 233.267C314.778 229.711 293.844 249.178 278.2 286.267C269.689 306.467 266.422 319.511 263.467 335.756C258.133 335.8 249.867 335.756 249.867 335.756C249.867 335.756 251.4 324.978 255 309.644C258.578 294.333 273 255.956 278.2 237.689C278.933 235.156 279.489 232.667 279.911 230.222C286.311 193 258.978 168.111 240 155.6C221 168.111 193.644 193 200.067 230.222C200.489 232.689 201.022 235.178 201.756 237.689C206.956 255.978 221.378 294.333 224.978 309.644C228.556 324.978 230.111 335.756 230.111 335.756C230.111 335.756 221.822 335.8 216.511 335.756C213.533 319.511 210.267 306.489 201.756 286.267C186.133 249.178 165.2 229.733 143.133 233.267C141.089 233.6 139.089 234.133 137.156 234.844C141.822 258.156 149.311 280.222 159.467 300.311C159.533 300.311 159.578 300.289 159.644 300.289C170.578 298.556 181.267 301.467 188.844 308.422C200.578 319.2 200.622 335.733 200.622 335.733H181.956C187.578 342.822 193.578 349.333 199.867 355.178C211.044 355.178 223.4 355.178 227.022 355.178C226.133 360.4 222.356 365.156 216.978 368.911C224.4 374 232.111 378.244 240 381.533C247.889 378.267 255.6 374.022 263 368.933C257.622 365.178 253.822 360.4 252.933 355.178C256.556 355.178 268.956 355.178 280.133 355.178C286.422 349.333 292.422 342.844 298.044 335.733H279.311C279.311 335.733 279.356 319.2 291.111 308.422C298.689 301.467 309.333 298.556 320.289 300.289C320.378 300.289 320.444 300.311 320.533 300.333C330.689 280.244 338.2 258.178 342.867 234.867C340.889 234.133 338.889 233.6 336.822 233.267V233.267Z" fill="white"/>
<path d="M200.044 230.2C200.467 232.667 201 235.156 201.733 237.667C206.933 255.956 221.356 294.311 224.956 309.622C228.533 324.956 230.089 335.733 230.089 335.733H239.978V155.578C220.978 168.089 193.622 192.978 200.044 230.2V230.2Z" fill="#C1C5C8"/>
<path d="M447.911 296.311L368.4 268.889C370.489 259.6 371.6 249.933 371.6 240C371.6 217.933 366.156 197.111 356.556 178.844C356.6 170 356.178 159.267 355.4 149.889L355.2 147.333L352.8 146.444C352.555 146.356 341.111 142.156 322.867 137.756C300.244 119.4 271.422 108.4 240.022 108.4C208.622 108.4 179.778 119.4 157.156 137.756C138.933 142.156 127.467 146.356 127.222 146.444L124.822 147.333L124.622 149.889C123.844 159.267 123.422 170 123.467 178.844C113.867 197.111 108.4 217.933 108.4 240C108.4 249.933 109.533 259.578 111.6 268.867L32.0889 296.289C32.8 298.911 33.5555 301.489 34.3555 304.067L113.6 276.733C125.689 318.356 157.778 351.467 198.756 364.978C211.133 375.689 224.533 384.022 238.511 389.6L240 390.2L241.489 389.6C255.467 384.022 268.867 375.667 281.244 364.978C322.222 351.467 354.311 318.356 366.4 276.756L445.644 304.089C446.444 301.511 447.2 298.911 447.911 296.311V296.311ZM240 116.444C262.4 116.444 283.889 122.378 302.689 133.467C285.133 130.222 264.267 127.622 242.267 127.622H240H237.756C215.756 127.622 194.889 130.2 177.311 133.467C196.111 122.356 217.6 116.444 240 116.444V116.444ZM152.622 327.378C129.289 304.044 116.422 273.022 116.422 240C116.422 225.089 119.067 210.578 124.089 197C126.8 239 137.933 278.533 156.644 312.2C164.444 326.222 173.444 338.889 183.378 349.889C172.178 344.089 161.8 336.556 152.622 327.378V327.378ZM148.311 274.644C149.089 276.756 149.889 278.844 150.711 280.933C149.889 278.844 149.089 276.756 148.311 274.644ZM150.889 281.356C151.733 283.467 152.6 285.556 153.511 287.644C152.622 285.578 151.733 283.467 150.889 281.356V281.356ZM153.511 287.667C155.378 291.956 157.356 296.178 159.444 300.289C157.356 296.156 155.378 291.956 153.511 287.667ZM217.356 369.2C218.156 369.756 218.956 370.289 219.756 370.822C219.244 370.489 218.711 370.156 218.2 369.8C217.911 369.6 217.644 369.4 217.356 369.2V369.2ZM240 381.556C239.044 381.156 238.067 380.733 237.111 380.311C238.067 380.733 239.044 381.156 240 381.556V355.067L227.022 355.2C226.133 360.422 222.333 365.178 216.978 368.956C212.133 365.622 207.4 361.956 202.822 357.911C187.911 344.756 174.578 327.956 163.667 308.311C162.222 305.689 160.8 303.044 159.444 300.356C159.511 300.356 159.578 300.333 159.644 300.311C170.578 298.578 181.267 301.489 188.844 308.444C197.578 316.467 199.844 327.667 200.422 332.889C196.756 286.867 167.733 267.689 148.267 274.533C137.667 245.689 131.956 213.889 131.533 180.778C131.533 180.378 131.533 179.978 131.533 179.578C131.489 175.178 131.578 170.244 131.778 165.222C131.933 161.178 132.156 157.111 132.444 153.2C134.867 152.378 139.044 151.022 144.622 149.422C149.156 148.133 154.622 146.667 160.844 145.2C180.667 140.511 208.156 135.711 237.778 135.711H240.022H242.289C271.911 135.711 299.4 140.511 319.222 145.2C325.444 146.667 330.911 148.133 335.444 149.422C341.022 151.022 345.2 152.378 347.622 153.2C347.911 157.111 348.133 161.2 348.289 165.244C348.489 170.267 348.578 175.2 348.533 179.6C348.533 180 348.533 180.4 348.533 180.822C348.111 213.933 342.378 245.733 331.8 274.556C312.333 267.756 283.333 286.933 279.689 332.933C280.267 327.711 282.533 316.511 291.267 308.489C298.844 301.533 309.511 298.622 320.467 300.356C320.511 300.356 320.578 300.356 320.622 300.378C319.267 303.067 317.867 305.733 316.4 308.356C305.489 328 292.156 344.8 277.244 357.956C272.289 362.333 267.156 366.311 261.867 369.844C254.822 374.578 247.533 378.511 240.067 381.622L240 381.556ZM219.778 370.822C220.689 371.422 221.6 372 222.533 372.556C221.622 371.978 220.689 371.4 219.778 370.822ZM222.622 372.622C223.511 373.156 224.4 373.689 225.267 374.222C224.378 373.711 223.489 373.178 222.622 372.622ZM225.489 374.356C226.333 374.844 227.178 375.311 228.022 375.778C227.178 375.311 226.333 374.844 225.489 374.356ZM228.378 376C229.178 376.422 229.956 376.844 230.756 377.267C229.956 376.844 229.178 376.444 228.378 376ZM231.289 377.533C232.044 377.911 232.8 378.289 233.533 378.667C232.778 378.289 232.022 377.933 231.289 377.533ZM234.2 378.978C234.933 379.333 235.667 379.667 236.422 380C235.689 379.667 234.933 379.333 234.2 378.978ZM331.689 274.622C330.911 276.733 330.111 278.844 329.267 280.933C330.089 278.844 330.911 276.733 331.689 274.622ZM329.111 281.333C326.511 287.822 323.644 294.156 320.556 300.311C323.667 294.156 326.511 287.844 329.111 281.333V281.333ZM327.356 327.378C318.178 336.556 307.822 344.089 296.6 349.889C306.533 338.889 315.533 326.222 323.333 312.2C342.044 278.533 353.178 239 355.889 197.022C360.911 210.6 363.556 225.111 363.556 240.022C363.556 273.022 350.711 304.044 327.356 327.4V327.378Z" fill="#C1C5C8"/>
</g>
<defs>
<clipPath id="clip0_5_420">
<rect width="480" height="480" fill="white"/>
</clipPath>
</defs>
</svg>
