<svg xmlns="http://www.w3.org/2000/svg" viewBox="0 0 800 800"><path d="M400,60.09A340,340,0,0,1,640.43,640.34,337.65,337.65,0,0,1,400,739.91c-90.83,0-176.19-35.3-240.34-99.39S60.09,491,60.09,400A339.8,339.8,0,0,1,400,60.09m0-15.51c-95.08,0-184.39,37-251.5,104.21A353.23,353.23,0,0,0,44.58,400c0,95.1,37,184.42,104.12,251.49S305,755.42,400,755.42A355.47,355.47,0,0,0,651.31,148.6,353.14,353.14,0,0,0,400,44.58Z" style="fill:#0a2240"/><path d="M400,60.09A340,340,0,0,1,640.43,640.34,337.65,337.65,0,0,1,400,739.91c-90.83,0-176.19-35.3-240.34-99.39S60.09,491,60.09,400A339.8,339.8,0,0,1,400,60.09" style="fill:#fff"/><path d="M126.33,377.87c-8,0-13.85,5.4-13.85,12.91S118.12,403,124.92,403a10.15,10.15,0,0,0,8.45-4c-.47,6.57-4.93,10.32-11.5,10.32a15.88,15.88,0,0,1-6.57-1.64L113.42,414c1.88,1.17,5.4,1.88,8.45,1.88,12.44,0,19-7.75,19-20.66C140.88,383.51,134.31,377.87,126.33,377.87Zm-.23,18.55c-3.52,0-6.34-2.35-6.34-5.87a6.34,6.34,0,0,1,12.67,0A6.07,6.07,0,0,1,126.1,396.42Z" style="fill:#0a2240"/><path d="M83.38,385.62v5.16h8.69v24.41h7.74V378.81H93C92.3,382.57,88.54,385.62,83.38,385.62Z" style="fill:#0a2240"/><path d="M668,377.87c-8,0-13.84,5.4-13.84,12.68,0,7.51,5.63,12.2,12.44,12.2,3.75,0,7-1.64,8.45-3.75-.47,6.57-4.93,10.09-11.5,10.09a16.18,16.18,0,0,1-6.58-1.41l-1.87,6.1a17.81,17.81,0,0,0,8.45,2.12c12.43,0,19-7.75,19-20.89C682.59,383.51,676,377.87,668,377.87Zm-.23,18.55a5.79,5.79,0,0,1-6.1-6.11,5.86,5.86,0,0,1,6.1-5.87c3.52,0,6.34,2.35,6.34,5.87C674.14,394.07,671.32,396.42,667.8,396.42Z" style="fill:#0a2240"/><path d="M707.7,390.78A10,10,0,0,0,699,395c.7-6.81,5.86-10.57,12-10.57a15.66,15.66,0,0,1,6.1,1.41l2.11-6.33a15.79,15.79,0,0,0-7.74-1.65c-12,0-20.19,8.22-20.19,21.36,0,10.8,6.81,16.67,14.79,16.67s14.08-5.4,14.08-12.91S715,390.78,707.7,390.78Zm-1.64,18.54a6.1,6.1,0,0,1-6.34-6.1c0-3.75,2.82-6.1,6.34-6.1s6.33,2.35,6.33,6.1S709.58,409.32,706.06,409.32Z" style="fill:#0a2240"/><polygon points="304.24 642.39 279.36 668.21 282.88 632.53 273.96 628.3 270.44 676.65 278.66 680.64 312.69 646.14 304.24 642.39" style="fill:#0a2240"/><path d="M224.67,593.33l-13.14-12-30.75,33.1,6.58,6.1,11.73-12.91,3.29,3.29-5.17,18.77,7.28,6.57,5.4-19.95c5.4,2.59,11.5,1.41,16-3.05C231.25,607.42,231,599.44,224.67,593.33ZM219,607.18c-2.58,2.82-6.1,3.05-9.62-.23l-5.17-4.7,8.69-9.15,5.16,4.69C221.39,600.84,221.62,604.6,219,607.18Z" style="fill:#0a2240"/><polygon points="218.1 646.61 241.57 662.34 246.27 655.53 230.07 644.5 235.71 636.05 250.73 645.67 254.95 639.1 240.16 629.48 245.8 621.03 262.23 631.83 266.92 624.78 243.45 609.06 218.1 646.61" style="fill:#0a2240"/><polygon points="495.06 643.56 511.95 685.57 520.17 682.29 503.27 640.27 495.06 643.56" style="fill:#0a2240"/><path d="M532.37,624.55c-10.56,6.1-15.49,19.48-8.21,32.15s21.36,14.79,31.92,8.92c10.8-6.33,15.73-19.71,8.45-32.39C557,620.56,542.94,618.45,532.37,624.55Zm19.48,33.56c-5.86,3.29-14.78,2.82-19.71-6.1-5.16-8.92-1.64-16.43,4.46-20.18,6.1-3.29,14.79-2.82,19.95,5.86C561.71,646.61,558,654.36,551.85,658.11Z" style="fill:#0a2240"/><polygon points="582.84 587.93 603.02 610.23 568.99 600.37 560.54 607.65 590.82 641.68 597.39 635.82 575.79 611.64 612.64 621.97 619.68 615.87 589.64 582.07 582.84 587.93" style="fill:#0a2240"/><path d="M338.74,652.48c-12-2.82-24.88,3.28-28.16,17.6-3.76,14.32,4.93,25.59,16.9,28.4,12,3,24.87-3.28,28.16-17.37C359.4,666.8,350.71,655.3,338.74,652.48ZM347,678.77c-2.59,10.09-10.8,12.91-17.37,11.5-6.81-1.65-12.68-8.22-10.33-18.08,2.58-10.09,10.8-12.9,17.37-11.26C343.44,662.34,349.3,668.91,347,678.77Z" style="fill:#0a2240"/><polygon points="379.81 660.23 370.9 659.52 368.08 704.82 398.36 706.93 398.83 698.25 377.47 697.07 379.81 660.23" style="fill:#0a2240"/><polygon points="486.14 647.32 449.99 657.17 452.11 665.15 465.95 661.4 475.58 697.07 484.02 694.73 474.4 659.05 488.48 655.53 486.14 647.32" style="fill:#0a2240"/><path d="M441.07,658.58l-8.68,1.18,2.82,28.16c.7,5.87-2.35,9.39-7.51,9.86s-8.92-2.35-9.63-8.22l-2.34-28.16-8.92.7,2.81,29.11c.94,11,9.16,16.19,18.78,15.25s16.9-7.74,15.72-18.77Z" style="fill:#0a2240"/><polygon points="190.41 238.22 166 217.8 203.78 222.73 209.89 215.46 175.15 186.35 169.52 193.16 192.52 212.41 157.31 207.48 150.27 215.93 184.78 245.03 190.41 238.22" style="fill:#0a2240"/><polygon points="265.98 172.03 259.88 138.71 284.29 162.41 292.04 158.19 281.94 112.65 273.73 116.17 281.47 147.86 257.77 124.86 249.79 129.32 255.66 161.47 233.12 137.77 225.85 142.93 257.77 176.5 265.98 172.03" style="fill:#0a2240"/><polygon points="241.81 188.23 236.41 181.89 221.39 194.33 214.58 186.12 228.19 174.85 223.27 168.75 209.65 180.25 202.85 172.03 218.1 159.6 212.71 153.26 190.88 171.33 219.75 206.07 241.81 188.23" style="fill:#0a2240"/><polygon points="582.13 166.4 577.44 204.43 584.48 210.53 613.58 175.79 606.78 170.16 587.53 192.92 592.46 157.95 584.01 150.91 554.91 185.65 561.71 191.28 582.13 166.4" style="fill:#0a2240"/><path d="M524.39,155.84l16,8.92-1.4,10.8,8.21,4.69L554,132.37l-8.69-4.93-37.32,31,8.22,4.46Zm20.42-17.37-3,17.84L531,150.44Z" style="fill:#0a2240"/><polygon points="504.91 148.56 486.14 141.76 498.34 107.02 489.89 103.97 475.11 146.69 502.33 156.54 504.91 148.56" style="fill:#0a2240"/><path d="M629.07,191.52l-35.2,28.4,10.32,12.67c8,10.09,20.66,12.44,31.69,3.52,11.27-9.15,11.5-22.06,3.52-31.92Zm.94,37.31c-7.51,6.11-14.78,4-19.71-1.64l-4.7-5.4,22.77-18.3,4.46,5.39C637.52,214.75,637.76,222.5,630,228.83Z" style="fill:#0a2240"/><polygon points="407.75 90.59 398.83 90.83 400 120.87 380.05 91.53 369.02 92 370.66 137.06 379.58 136.59 378.41 104.91 400 136.13 409.39 135.66 407.75 90.59" style="fill:#0a2240"/><polygon points="337.8 134.95 335.69 124.63 353.06 121.1 351.18 113.36 334.05 116.88 331.7 106.79 350.95 102.8 349.07 94.58 321.37 100.69 331 145.04 358.69 139.18 357.05 130.96 337.8 134.95" style="fill:#0a2240"/><path d="M455.16,135.89l-.24,5.16,7,1.18L465.72,119l-22.3-3.75-1.17,7.51,14.08,2.58c-.94,2.82-4.93,8-13.38,6.81-7.28-1.41-13.14-7.75-11.73-17.84,1.87-10.56,10.09-14.08,16.66-12.91,7.28,1.17,10.33,6.57,10.8,10.56l8.68-1.64c-1.17-7.28-6.34-15-18.07-17.14-12.21-2.11-24.41,5.17-26.76,19.72-2.34,14.32,6.57,25.11,18.78,26.76C447.65,140.82,452.81,138.47,455.16,135.89Z" style="fill:#0a2240"/><path d="M639.93,398.86A125,125,0,0,0,575,289.2a52.39,52.39,0,0,0-65.2-65,125.06,125.06,0,0,0-220,.67,52.41,52.41,0,0,0-64.21,64,125.07,125.07,0,0,0-.34,219.8,52.38,52.38,0,0,0,65.1,65.25,125.08,125.08,0,0,0,219.3,0,52.41,52.41,0,0,0,65.27-65.31A125,125,0,0,0,639.93,398.86Z" style="fill:#0a2240"/><path d="M349.85,426.86l-31,25.52a.22.22,0,0,1,0,.08l-55,45.28a168.24,168.24,0,0,1,3-201.48c.41-.54.84-1.07,1.26-1.6l1-1.26c2.19-2.72,4.46-5.38,6.82-7.95-55.63,5-99.3,53.93-99.3,113.59s43.67,108.61,99.3,113.59h0l10.07.93s.75,11.16.85,12.12c6.15,54.47,54.51,96.89,113.31,96.89,59.66,0,108.61-43.67,113.59-99.29-2.57,2.35-5.23,4.62-8,6.82l-1.25,1c-.54.42-1.07.85-1.61,1.26a168.24,168.24,0,0,1-201.47,3l82.8-100c-2-3-4.11-5.37-6.26-6.62l-26.58-3.1h0l-1.52,1.24M194,399c0-48.2,28.43-88.77,67.09-100.92-28.27,19.54-47.45,57.4-47.45,100.92S232.82,480.42,261.09,500C222.43,487.81,194,447.25,194,399ZM400.12,605.16c-48.2,0-88.77-28.42-100.92-67.09,19.54,28.28,57.4,47.45,100.92,47.45S481.5,566.35,501,538.07C488.89,576.74,448.33,605.16,400.12,605.16ZM527.45,285.8l-.12,0c-1.13-.12-2.26-.25-3.4-.34l-9.37-.88s-.89-9.78-.85-9.74c-5-55.63-53.93-99.3-113.59-99.3s-108.61,43.67-113.59,99.3q3.87-3.54,8-6.83l1.26-1c.53-.42,1.06-.85,1.6-1.26a168.25,168.25,0,0,1,201.49-3l-17.08,20.82L461.63,308l0,0-64.76,79c14.84.07,27.58.13,34.16.13l.79,0,105.59-85.46a168.31,168.31,0,0,1-4,200.16c-.41.54-.83,1.07-1.26,1.61l-1,1.25c-2.2,2.72-4.47,5.38-6.82,7.95,55.62-5,99.29-53.93,99.29-113.59C623.65,340.49,581.59,292.29,527.45,285.8ZM400.12,212.56c-43.52,0-81.38,19.17-100.92,47.45,12.15-38.67,52.72-67.09,100.92-67.09S488.89,221.35,501,260C481.5,231.73,443.64,212.56,400.12,212.56Zm139,287.4c28.28-19.54,47.45-57.4,47.45-100.92,0-42.79-18.54-80.1-46-99.91l.29-.23-.31-.31c38,12.68,65.7,52.83,65.7,100.45C606.24,447.25,577.82,487.81,539.15,500Zm22.33,23.75a36.65,36.65,0,0,1-45.07,35.71,124.06,124.06,0,0,0,4.4-13.39,22.6,22.6,0,0,0,26.67-22.32,22.18,22.18,0,0,0-.38-4,125.51,125.51,0,0,0,13.39-4.39A36.39,36.39,0,0,1,561.48,523.71Zm-285.23-285a36.34,36.34,0,0,1,6.89.66,123.28,123.28,0,0,0-4.26,13.51,20.75,20.75,0,0,0-2.63-.17,22.72,22.72,0,0,0-22.69,22.69,20.89,20.89,0,0,0,.13,2.39,123.54,123.54,0,0,0-13.51,4.32,37.13,37.13,0,0,1-.62-6.71A36.73,36.73,0,0,1,276.25,238.75ZM547.16,278a23.4,23.4,0,0,0,.32-3.67A22.56,22.56,0,0,0,520.9,252a124.17,124.17,0,0,0-4.35-13.41,36.65,36.65,0,0,1,44,43.82A124.44,124.44,0,0,0,547.16,278ZM284.05,560.56a36.68,36.68,0,0,1-43.38-44.79,124.63,124.63,0,0,0,12.46,4,22.43,22.43,0,0,0-.37,4,22.72,22.72,0,0,0,22.7,22.69,23.11,23.11,0,0,0,3.74-.33A123.16,123.16,0,0,0,284.05,560.56Z" style="fill:#ce0e2d"/><path d="M334.07,519.8l16.48-29.75c3,23.55,14.82,37.24,14.82,37.24l-9.08,11.07ZM299.32,426c0-4.11.69-11.62,10-11.62h10.46V434a141.53,141.53,0,0,1-.95,18.36l31-25.54V414.35h32.31A52.57,52.57,0,0,1,403,430.73c26.55,34.73,42.32,86.8,78.6,93.88l45.23-44.85-12.87-11.49s-18.39,18.15-33.68,17.4c-18.15-.88-25.45-25.24-35.68-43.66a212.59,212.59,0,0,0-17.86-27.66H428s27.66.89,43.59-7.74c21.34-11.56,34.7-32.13,37.9-57.3L465.82,372c-7.1,9.38-18.51,15.15-34.77,15.15-13.2,0-51.21-.22-81.2-.41V308.07c14.32-8.44,37.41-21.31,69.92-18.73,18.6,1.47,32.59,8.77,41.83,18.71l20.08-24.51a91,91,0,0,0-23.86-13.23C404.8,250.1,353.73,276,333,288c-22.79,13.28-41.37,6.2-41.37,6.2l-4.65,23a52.46,52.46,0,0,0,32.75,3.86v65.46l-10.05-.06c-9.29,0-10-7.52-10-11.62V358.43H283.31l-.41,84h16.42Z" style="fill:#fff"/></svg>