<svg id="Layer_1" data-name="Layer 1" xmlns="http://www.w3.org/2000/svg" viewBox="0 0 800 800"><defs><style>.cls-1{fill:#004712;}.cls-2{fill:#cb9700;}.cls-3{fill:#fff;}</style></defs><title>POR-Logo</title><path class="cls-1" d="M742.5,385.33a341.55,341.55,0,0,0-108.7-250.2c-6-23.4-13.5-38-14.3-39.5l-8.4-15.8-17,5.7c-6.1,2-12.2,3.9-18.4,5.8a342.44,342.44,0,0,0-351.7.3c-11.1-3.3-17.3-5.7-17.6-5.8l-18.4-7-8.4,17.8a226.19,226.19,0,0,0-14.1,39.2,341.35,341.35,0,0,0-108,249.5c0,166.1,118.3,304.6,275.2,335.8-.8,7.8-1.3,13.2-1.4,15.8a106.31,106.31,0,0,0,13.1,8.7c11.1,5.7,28.7,11.5,54.9,11.5h1.8c41.7-.1,62-14.9,68-20.2-.1-2.5-.7-7.9-1.7-15.8C624.3,689.83,742.5,551.43,742.5,385.33Z"/><path class="cls-2" d="M654.1,188.43c-5.2-44-26-79.9-35.2-94l.6,1.2c1.1,2.1,16.5,31.8,20.6,76.2.3,3.2.5,6.5.7,9.9v.6q.3,5.25.3,10.8v.2c3.7,4.7,7.3,9.4,10.7,14.3A308.8,308.8,0,0,1,699.2,460L502.6,266.53q-10.5-2.25-22.2-4.2l215,211.6A307,307,0,0,1,671.3,532L454.7,315.23c-.6,9.1-1.1,19.1-1.3,29.8l206.4,206.4a307.15,307.15,0,0,1-36,45.9L453.7,427.23q.15,8.7.3,18l161,161.1a307.83,307.83,0,0,1-131.9,76c-2.9.8-5.7,1.5-8.6,2.3l-2.1.5c-3,.7-5.9,1.4-8.9,2h0v.6c.3,4,.7,7.9,1,11.7,0,.3.1.6.1.9,1.8,12.4,3.1,22.2,3.8,28.8a306,306,0,0,0,11.1-32.2c139.1-35.4,242-161.4,242-311.5A320,320,0,0,0,654.1,188.43Zm-307,127.2L129.3,532.93a312.9,312.9,0,0,1-24.8-59.5l212.3-210.6c-7.9,1.3-15.3,2.8-22.2,4.4L100.7,459.53a308.7,308.7,0,0,1,47.4-251.7c3.4-4.8,7-9.6,10.6-14.2v-.3c-.1-6.8.2-13.9.8-21.1h0a218.09,218.09,0,0,1,19.7-74.8c-9.9,15.8-28.6,50-33.4,91.3a319.48,319.48,0,0,0-67.2,196.6c0,150,102.8,276,241.8,311.5a278.59,278.59,0,0,0,11.5,33.3c.8-8.7,2.5-23.7,4.8-43-3-.6-6-1.3-9-2l-2.1-.5c-2.9-.7-5.8-1.5-8.6-2.3a306.35,306.35,0,0,1-129.7-74l160.7-162c.1-6.2.2-12.3.3-18.1L178.2,599.43a313.1,313.1,0,0,1-37.3-47l207.5-207C348.1,334.73,347.7,324.73,347.1,315.63Zm178.8-211.9h0c5.3-1.1,10.6-2.3,15.8-3.5l1.7-.4,3.1-.7h-.1c15.5-3.8,30.8-8.1,45.9-13.1l-60.4,6.1a321.86,321.86,0,0,0-264,.1l-61-6.2a440.68,440.68,0,0,0,46.2,13.3h.1l.9.2,5,1.1,1.6.3c1.6.4,3.2.7,4.9,1.1l1.4.3c2.1.4,4.3.9,6.5,1.3h0l.6.1a309,309,0,0,1,251.8-.1Z"/><path class="cls-3" d="M600.6,105.13c-216,72.1-402.7,0-402.7,0-42.3,89.5-.1,175.5-.1,175.5s67.2-46.1,202.1-46.1,200.7,46,200.7,46C643.6,185.83,600.6,105.13,600.6,105.13ZM445.1,722.83c-11.4-94.6-13.6-303.3-13.6-362.3a696.36,696.36,0,0,1,8-104c-12.4-1-25.6-1.6-39.4-1.6-13.6,0-26.5.5-38.8,1.5a710.19,710.19,0,0,1,8,104.1c0,59-2.2,267.7-13.6,362.3h0s10.9,11.3,44.7,11.3h.2c33.7,0,44.6-11.3,44.5-11.3Z"/></svg>